<svg version="1.2" xmlns="http://www.w3.org/2000/svg" viewBox="0 0 120 27" width="120" height="27"><style>tspan{white-space:pre}.a{font-size: 24px;fill: #000000;font-weight: 400;font-family: "Prociono-Regular", "Prociono"}.b{fill:#00a78e}</style><text style="transform:matrix(1,0,0,1,7,16.8)" ><tspan x="0" y="0" class="a">Develop</tspan><tspan  y="0" class="a">
</tspan></text><path fill-rule="evenodd" class="b" d="m103.3 16c-0.4 2.9-3 4.8-6.7 4.8-4.5 0-7.2-2.9-7.2-7.6 0-4.6 2.8-7.7 7.1-7.7 4.3 0 7 2.9 7 7.4v1.2h-10.2v0.2c0 2.1 1.4 3.6 3.4 3.6 1.5 0 2.6-0.8 3-1.9zm-10-4.4h6.2c0-1.8-1.3-3.1-3-3.1-1.8 0-3 1.3-3.2 3.1z"/><path class="b" d="m105.5 20.5h4v-8.2c0-2.1 1.2-3.3 3.1-3.3 0.6 0 1.1 0.1 1.5 0.3v-3.5c-0.3-0.1-0.7-0.2-1.2-0.2-1.7 0-2.9 1-3.4 2.9h-0.1v-2.7h-3.9z"/><path class="b" d="m116.8 20.7c1.2 0 2.2-1 2.2-2.2 0-1.3-1-2.2-2.2-2.2-1.2 0-2.2 0.9-2.2 2.2 0 1.2 1 2.2 2.2 2.2z"/></svg>